<svg xmlns="http://www.w3.org/2000/svg" width="145" height="40" viewBox="0 0 145 40"><style>.a,.b{fill:#fff}.b{stroke-width:.5;stroke:#fff}</style><title/><g fill="none"><path d="M48 7c0-3.9 2.1-5 5-5 .7 0 1.1.1 1.4.1 1.1.1 1.4.6 1.4 1.7v.3c0 1.2-.3 1.3-1.4 1.2-.3-.1-.5-.1-1.1-.1-1.1 0-1.9.4-1.9 1.5v1.4h2.7c1.2 0 1.5.2 1.5 1.4v.3c0 1.2-.3 1.5-1.5 1.5h-2.7v8.4c0 1.1-.3 1.4-1.5 1.4h-.4c-1.2 0-1.5-.3-1.5-1.4V7zM60.4 19.9c0 1.2-.3 1.5-1.4 1.5h-.5c-1.2 0-1.5-.3-1.5-1.5v-7.1C57 9.7 58.9 8 62.4 8h.3c1.1 0 1.4.5 1.4 1.7v.3c0 1.1-.3 1.3-1.4 1.2h-.3c-1.7 0-2 .6-2 1.8v6.9zM75.1 13.8c0-1.7-.5-2.6-2.8-2.6-2.4 0-2.9.9-2.9 2.6v2.1c0 1.7.5 2.6 2.9 2.6 2.3 0 2.8-.9 2.8-2.6v-2.1zM66 15.9v-2.1c0-3.7 2.2-5.8 6.3-5.8 4.3 0 6.2 1.9 6.2 5.8v2.1c0 3.7-2.2 5.8-6.2 5.8-4.3 0-6.3-1.9-6.3-5.8zM83.4 19.9c0 1.2-.3 1.5-1.4 1.5h-.5c-1.2 0-1.5-.3-1.5-1.5v-6.6C80 9.9 82 8 86 8c4.1 0 5.9 1.8 5.9 5.3v6.6c0 1.2-.3 1.5-1.5 1.5h-.5c-1.2 0-1.5-.3-1.5-1.5v-6.6c0-1.4-.3-2.1-2.4-2.1-2.2 0-2.6.7-2.6 2.1v6.6zM105 4.5c0-1.2.3-1.5 1.5-1.5h.4c1.2 0 1.5.3 1.5 1.5v12.1c0 1.3.4 1.7 1.1 1.7h.2c.7 0 .9.2.9 1.2v.5c0 1.1-.2 1.4-.9 1.5h-.8c-2.2 0-3.9-1.2-3.9-4.2V4.5zM112.3 9.4c0-1.2.3-1.4 1.5-1.4h.5c1.1 0 1.4.2 1.4 1.4v10.2c0 1.1-.3 1.4-1.4 1.4h-.5c-1.2 0-1.5-.3-1.5-1.4V9.4zM114 2c1.2 0 2.1.9 2.1 2s-.9 2.1-2.1 2.1c-1.1 0-2-.9-2-2.1 0-1.1.9-2 2-2zM122.4 19.9c0 1.2-.3 1.5-1.4 1.5h-.5c-1.2 0-1.5-.3-1.5-1.5v-6.6c0-3.4 2-5.3 6-5.3 4.1 0 5.9 1.8 5.9 5.3v6.6c0 1.2-.3 1.5-1.5 1.5h-.5c-1.2 0-1.5-.3-1.5-1.5v-6.6c0-1.4-.3-2.1-2.4-2.1-2.2 0-2.6.7-2.6 2.1v6.6zM136.4 13.3h5.2v-.4c0-1.3-.9-1.9-2.6-1.9-1.7 0-2.6.6-2.6 1.9v.4zm8.4 1.4c-.2 1.2-.5 1.4-1.7 1.4h-6.7v.4c0 1.3 1 2 3.4 2 1.4 0 2.7-.3 3.2-.4 1.2-.2 1.4.1 1.4 1.3v.2c0 1.2-.2 1.5-1.4 1.7-.5.2-1.7.4-3.2.4-4.6 0-6.8-1.7-6.8-5.7v-2.1c0-3.4 1.5-5.9 6.1-5.9 3.8 0 5.7 1.9 5.7 5.6v1.1zM101.9 18.4c-.3 0-.9.1-1.9.1-1 0-1.6-.4-1.6-1.7v-5.2h3c1.1 0 1.4-.3 1.4-1.5v-.2c0-1.2-.3-1.5-1.4-1.5h-3v-2c0-1.1-.3-1.4-1.4-1.4h-.6c-1.1 0-1.4.3-1.4 1.4v10.4c0 3.8 2.1 4.9 5 4.9 1 0 1.5 0 1.9-.1 1.1-.3 1.4-.7 1.4-1.9v-.3c0-1.1-.3-1.2-1.4-1" class="a"/><path d="M48.8 30.3h4.3v-.6c0-1.4-.8-2-2.1-2-1.4 0-2.2.6-2.2 2v.6zm5 .4c0 .2-.1.3-.4.3h-4.6v.5c0 1.6.7 2.2 2.4 2.2.9 0 1.8-.2 2.1-.3.3-.1.3 0 .3.2v.1c0 .3 0 .3-.3.4-.4.1-1.2.3-2.1.3-2.1 0-3.2-.8-3.2-3V30c0-1.7.7-3 3-3 1.8 0 2.9.9 2.9 2.8 0 .4-.1.7-.1.9zM56.8 31.4c0 1.4.5 2.2 2.3 2.2 1.8 0 2.3-.8 2.3-2.2v-1.5c0-1.4-.5-2.2-2.3-2.2-1.8 0-2.3.8-2.3 2.2v1.5zm5.4 0c0 1.8-.9 3-3.1 3-2.3 0-3.1-1.2-3.1-3v-1.5c0-1.8.7-3 3-3 1.3 0 2 .5 2.4 1.2v-3.7c0-.3.1-.4.3-.4h.1c.3 0 .4.1.4.4v7zM63.8 31.6c0 1.3.4 2 2.1 2 1.7 0 2.2-.7 2.2-2v-4.2c0-.3.1-.4.4-.4.3 0 .4.1.4.4v4.2c0 1.6-.8 2.7-3 2.7S63 33.2 63 31.6v-4.2c0-.3.1-.4.4-.4.3 0 .4.1.4.4v4.2zM71 30c0-1.8.9-3 3.2-3 .7 0 1.1.1 1.4.2.2.1.3.2.3.4v.1c0 .3-.1.4-.3.3-.3-.1-.7-.3-1.4-.3-1.9 0-2.4.9-2.4 2.3v1.4c0 1.7.7 2.3 2.5 2.3.5 0 1-.1 1.4-.2.3-.1.3-.1.3.2v.1c0 .3 0 .3-.3.4-.3.1-.9.2-1.5.2-2.2 0-3.2-.9-3.2-3V30zM81.8 30.8H80c-1.5 0-2.2.4-2.2 1.5s.9 1.4 1.8 1.4c1.4 0 2.2-.3 2.2-1.6v-1.3zm.8 1.3c0 1.7-1 2.3-3 2.3-1.3 0-2.6-.5-2.6-2.1 0-1.5 1-2.1 3-2.1h1.8v-1c0-1.2-.8-1.5-2.1-1.5-.8 0-1.4.1-1.7.2-.3.1-.3 0-.3-.3v-.1c0-.2 0-.3.3-.3.2-.1.9-.2 1.7-.2 1.7 0 2.9.5 2.9 2.2v2.9zM87.7 33.3c-.4.1-.8.1-1.4.1-.9 0-1.5-.3-1.5-1.7v-4.1h2.6c.3 0 .3 0 .3-.3v-.1c0-.2 0-.3-.3-.3h-2.6v-1.6c0-.2-.1-.3-.3-.3h-.2c-.2 0-.3.1-.3.3v6.4c0 1.8.9 2.5 2.3 2.5.5 0 .9-.1 1.4-.2.2-.1.3-.1.3-.4v-.1c0-.2-.1-.3-.3-.2M90.2 27.2c0-.3 0-.4.3-.4h.1c.3 0 .3.1.3.4v6.4c0 .3 0 .4-.3.4h-.1c-.3 0-.3-.1-.3-.4v-6.4zm.4-3.2c.3 0 .5.2.5.5s-.2.6-.5.6c-.4 0-.6-.3-.6-.6s.2-.5.6-.5zM97.4 30c0-1.5-.5-2.3-2.3-2.3-1.8 0-2.3.8-2.3 2.3v1.4c0 1.5.5 2.3 2.3 2.3 1.8 0 2.3-.8 2.3-2.3V30zM92 31.4V30c0-1.8.8-3 3.1-3s3.1 1.2 3.1 3v1.4c0 1.8-.8 3-3.1 3s-3.1-1.1-3.1-3zM100.8 33.9c0 .3-.1.4-.4.4-.3 0-.4-.1-.4-.4v-4.3c0-1.5.7-2.6 2.9-2.6 2.3 0 3 1.1 3 2.6v4.3c0 .3-.1.4-.4.4-.3 0-.4-.1-.4-.4v-4.3c0-1.2-.5-1.9-2.2-1.9-1.7 0-2.1.7-2.1 1.9v4.3z" class="b"/><path d="M30 12H13.9c-1.3 0-2.3 1-2.3 2.3v.9c0 1.2 1 2.3 2.3 2.3h9.2c1.5 0 2.7 1.2 2.7 2.8 0 1.5-1.2 2.7-2.7 2.7h-9.2C9.5 23 6 19.5 6 15.2v-.9c0-4.3 3.5-7.8 7.9-7.8H30c1.6 0 2.8 1.2 2.8 2.7 0 1.6-1.2 2.8-2.8 2.8M13.2 32.1H9.9c-1.5 0-2.8-1.2-2.8-2.8 0-1.5 1.3-2.7 2.8-2.7h3.3c1.5 0 2.7 1.2 2.7 2.7 0 1.6-1.2 2.8-2.7 2.8M28.5 0H14.4C6.4 0 0 6.4 0 14.4v12.7c0 6.7 5.4 12 12 12 3.9 0 7.6-1.6 10.1-4.5l14.6-16.3C43 11.2 37.9 0 28.5 0" fill="#6ECEB2"/></g></svg>